<?xml version="1.0" encoding="utf-8"?>
<!-- Generator: Adobe Illustrator 16.0.3, SVG Export Plug-In . SVG Version: 6.00 Build 0)  -->
<!DOCTYPE svg PUBLIC "-//W3C//DTD SVG 1.1//EN" "http://www.w3.org/Graphics/SVG/1.1/DTD/svg11.dtd">
<svg version="1.1" id="Layer_1" xmlns="http://www.w3.org/2000/svg" xmlns:xlink="http://www.w3.org/1999/xlink" x="0px" y="0px"
	 width="70px" height="65.25px" viewBox="0 0 70 65.25" enable-background="new 0 0 70 65.25" xml:space="preserve">
<line fill="none" stroke="#482B87" stroke-width="2.312" stroke-linecap="round" stroke-linejoin="round" stroke-miterlimit="10" x1="15.133" y1="32.799" x2="30.937" y2="27.358"/>
<line fill="none" stroke="#482B87" stroke-width="2.312" stroke-linecap="round" stroke-linejoin="round" stroke-miterlimit="10" x1="17.517" y1="39.626" x2="29.884" y2="35.368"/>
<line fill="none" stroke="#482B87" stroke-width="2.312" stroke-linecap="round" stroke-linejoin="round" stroke-miterlimit="10" x1="21.982" y1="53.484" x2="24.979" y2="52.453"/>
<line fill="none" stroke="#482B87" stroke-width="2.312" stroke-linecap="round" stroke-linejoin="round" stroke-miterlimit="10" x1="19.778" y1="46.536" x2="27.68" y2="43.816"/>
<polyline fill="none" stroke="#482B87" stroke-width="2.312" stroke-linecap="round" stroke-linejoin="round" stroke-miterlimit="10" points="
	28.106,60.088 19.511,62.937 2.337,11.131 27.199,2.851 33.588,22.123 "/>
<polygon fill="#482B87" points="41.066,19.956 60.098,25.106 63.448,12.558 44.426,7.368 "/>
<line fill="none" stroke="#482B87" stroke-width="2.312" stroke-linecap="round" stroke-linejoin="round" stroke-miterlimit="10" x1="40.501" y1="28.277" x2="56.635" y2="32.643"/>
<line fill="none" stroke="#482B87" stroke-width="2.312" stroke-linecap="round" stroke-linejoin="round" stroke-miterlimit="10" x1="38.643" y1="35.266" x2="54.776" y2="39.631"/>
<line fill="none" stroke="#482B87" stroke-width="2.312" stroke-linecap="round" stroke-linejoin="round" stroke-miterlimit="10" x1="34.561" y1="49.242" x2="50.695" y2="53.607"/>
<line fill="none" stroke="#482B87" stroke-width="2.312" stroke-linecap="round" stroke-linejoin="round" stroke-miterlimit="10" x1="36.637" y1="42.254" x2="52.771" y2="46.619"/>
<polyline fill="none" stroke="#482B87" stroke-width="2.312" stroke-linecap="round" stroke-linejoin="round" stroke-miterlimit="10" points="
	42.463,60.013 28.105,56.127 42.363,3.444 67.643,10.341 53.4,62.973 48.101,61.539 "/>
<polygon fill="#482B87" points="10.456,25.431 29.11,19.428 24.989,7.044 6.322,13.008 "/>
</svg>
