<?xml version="1.0" encoding="utf-8"?>
<!-- Generator: Adobe Illustrator 16.0.3, SVG Export Plug-In . SVG Version: 6.00 Build 0)  -->
<!DOCTYPE svg PUBLIC "-//W3C//DTD SVG 1.1//EN" "http://www.w3.org/Graphics/SVG/1.1/DTD/svg11.dtd">
<svg version="1.1" id="Layer_1" xmlns="http://www.w3.org/2000/svg" xmlns:xlink="http://www.w3.org/1999/xlink" x="0px" y="0px"
	 width="61.083px" height="57.5px" viewBox="0 0 61.083 57.5" enable-background="new 0 0 61.083 57.5" xml:space="preserve">
<path fill="none" stroke="#482B87" stroke-width="2.312" stroke-linecap="round" stroke-linejoin="round" stroke-miterlimit="10" d="
	M48.659,53.334h3.688c2.93,0,5.305-2.377,5.305-5.307V9.64c0-2.931-2.375-5.307-5.305-5.307H9.432c-2.93,0-5.306,2.376-5.306,5.307
	v38.387c0,2.93,2.376,5.307,5.306,5.307h32.886"/>
<line fill="none" stroke="#482B87" stroke-width="2.312" stroke-linecap="round" stroke-linejoin="round" stroke-miterlimit="10" x1="10.088" y1="26.667" x2="50.744" y2="48.652"/>
<line fill="none" stroke="#482B87" stroke-width="2.312" stroke-linecap="round" stroke-linejoin="round" stroke-miterlimit="10" x1="51.583" y1="26.667" x2="10.088" y2="47.912"/>
<line fill="none" stroke="#482B87" stroke-width="2.312" stroke-linecap="round" stroke-linejoin="round" stroke-miterlimit="10" x1="18.79" y1="34.736" x2="43.36" y2="34.736"/>
<line fill="none" stroke="#482B87" stroke-width="2.312" stroke-linecap="round" stroke-linejoin="round" stroke-miterlimit="10" x1="18.79" y1="38.402" x2="43.36" y2="38.402"/>
<path fill="none" stroke="#482B87" stroke-width="2.312" stroke-linecap="round" stroke-linejoin="round" stroke-miterlimit="10" d="
	M45.08,46.912H17.269c-2.868,0-5.195-2.105-5.195-4.704v-7.595c0-2.598,2.328-4.702,5.195-4.702H45.08
	c2.87,0,5.197,2.104,5.197,4.702v7.595C50.277,44.807,47.95,46.912,45.08,46.912z"/>
<line fill="none" stroke="#482B87" stroke-width="2.312" stroke-linecap="round" stroke-linejoin="round" stroke-miterlimit="10" x1="13.201" y1="12.917" x2="24.711" y2="12.917"/>
<line fill="none" stroke="#482B87" stroke-width="2.312" stroke-linecap="round" stroke-linejoin="round" stroke-miterlimit="10" x1="13.201" y1="16.583" x2="24.711" y2="16.583"/>
<path fill="none" stroke="#482B87" stroke-width="2.312" stroke-linecap="round" stroke-linejoin="round" stroke-miterlimit="10" d="
	M25.56,19.977H12.352c-1.802,0-3.263-1.461-3.263-3.263v-4.238c0-1.802,1.461-3.263,3.263-3.263H25.56
	c1.802,0,3.263,1.461,3.263,3.263v4.238C28.823,18.516,27.362,19.977,25.56,19.977z"/>
<path fill="none" stroke="#482B87" stroke-width="2.312" stroke-miterlimit="10" d="M51.576,19.977h-6.773
	c-0.615,0-1.112-0.499-1.112-1.114v-8.536c0-0.615,0.497-1.114,1.112-1.114h6.773c0.615,0,1.114,0.499,1.114,1.114v8.536
	C52.69,19.478,52.191,19.977,51.576,19.977"/>
<line fill="none" stroke="#482B87" stroke-width="2.312" stroke-linecap="round" stroke-linejoin="round" stroke-miterlimit="10" x1="18.79" y1="42.402" x2="43.36" y2="42.402"/>
</svg>
