<svg xmlns="http://www.w3.org/2000/svg" width="16" height="16" fill="currentColor" class="svg-icon-serach" viewBox="0 0 16 16">
 <g transform="matrix(1.63 0 0 1.63 -83.9 -83.3)">
  <path d="m58.4 55.3q0-1.09-0.775-1.86-0.775-0.785-1.87-0.785-1.09 0-1.87 0.785-0.775 0.775-0.775 1.86 0 1.1 0.775 1.87 0.785 0.775 1.87 0.775 1.1 0 1.87-0.775t0.775-1.87zm3.03 4.92q0 0.31-0.227 0.527-0.227 0.227-0.527 0.227-0.32 0-0.537-0.227l-2.03-2.02q-1.05 0.734-2.36 0.734-0.837 0-1.61-0.331t-1.33-0.889q-0.558-0.558-0.878-1.32-0.331-0.775-0.331-1.62 0-0.837 0.331-1.61 0.32-0.765 0.878-1.32t1.33-0.889 1.61-0.331q0.847 0 1.62 0.331 0.765 0.331 1.32 0.889 0.558 0.558 0.889 1.32 0.331 0.775 0.331 1.61 0 1.3-0.734 2.36l2.03 2.03q0.217 0.227 0.217 0.537z"/>
 </g>
</svg>
