<?xml version="1.0" encoding="UTF-8"?>
<!-- Created with Inkscape (http://www.inkscape.org/) -->
<svg width="10.253mm" height="10.253mm" version="1.1" viewBox="0 0 10.253 10.253" xmlns="http://www.w3.org/2000/svg">
 <g transform="translate(-34.962 -34.343)">
  <g stroke-width=".26458" aria-label="">
   <path d="m41.907 37.484h-3.638q0.22738-1.4056 0.72347-2.2738 0.49609-0.86816 1.0955-0.86816t1.0955 0.86816q0.49609 0.86816 0.72347 2.2738zm-3.7414 3.3073q-0.06201-0.66146-0.06201-1.3229t0.06201-1.3229h3.8447q0.06201 0.66146 0.06201 1.3229t-0.06201 1.3229zm6.6559-3.3073h-2.2324q-0.31006-1.9017-1.0335-2.9352 1.0955 0.33073 1.943 1.1162 0.86816 0.76481 1.3229 1.819zm-6.2012-2.9352q-0.74414 1.0335-1.0335 2.9352h-2.2324q0.45475-1.0542 1.3022-1.819 0.86816-0.78548 1.9637-1.1162zm6.4079 3.5967q0.18604 0.66146 0.18604 1.3229t-0.18604 1.3229h-2.3564q0.06201-0.68213 0.06201-1.3229t-0.06201-1.3229zm-7.5861 1.3229q0 0.62012 0.06201 1.3229h-2.3564q-0.18604-0.68213-0.18604-1.3229t0.18604-1.3229h2.3564q-0.06201 0.68213-0.06201 1.3229zm0.82682 1.9844h3.638q-0.22738 1.4056-0.72347 2.2738-0.49609 0.86816-1.0955 0.86816t-1.0955-0.86816q-0.49609-0.86816-0.72347-2.2738zm3.2866 2.9352q0.74414-1.0335 1.0335-2.9352h2.2324q-0.45475 1.0542-1.3229 1.8397-0.84749 0.76481-1.943 1.0955zm-6.2012-2.9352h2.2324q0.31006 1.9017 1.0335 2.9352-1.0955-0.33073-1.9637-1.0955-0.84749-0.78548-1.3022-1.8397z"/>
  </g>
 </g>
</svg>
